# xmcd
#
# Track frame offsets: 
#        150
#        47110
#        75275
#        117290
#        155705
#        184635
#        223272
#        244020
#
# Disc length: 3444 seconds
#
# Revision: 2
# Processed by: cddbd v1.5.2PL0 Copyright (c) Steve Scherf et al.
# Submitted via: ExactAudioCopy v1.1
#
DISCID=660d7208
DTITLE=Mark Isaacs - Closer
DYEAR=2000
DGENRE=Jazz
TTITLE0=Aussie Angels
TTITLE1=Josephine
TTITLE2=Jerusalem
TTITLE3=Closer
TTITLE4=Constellations
TTITLE5=Bramston Beach
TTITLE6=Chrysalis
TTITLE7=Gratitude
EXTD=YEAR: 2000
EXTT0=
EXTT1=
EXTT2=
EXTT3=
EXTT4=
EXTT5=
EXTT6=
EXTT7=
PLAYORDER=
